<?xml version="1.0" encoding="UTF-8"?>
<!DOCTYPE svg PUBLIC "-//W3C//DTD SVG 1.1//EN" "http://www.w3.org/Graphics/SVG/1.1/DTD/svg11.dtd">
<!-- Creator: CorelDRAW -->
<svg xmlns="http://www.w3.org/2000/svg" xml:space="preserve" width="80mm" height="30mm" version="1.1" style="shape-rendering:geometricPrecision; text-rendering:geometricPrecision; image-rendering:optimizeQuality; fill-rule:evenodd; clip-rule:evenodd"
viewBox="0 0 8000 3000"
 xmlns:xlink="http://www.w3.org/1999/xlink"
 xmlns:xodm="http://www.corel.com/coreldraw/odm/2003">
 <defs>
  <style type="text/css">
   <![CDATA[
    .fil0 {fill:none}
    .fil2 {fill:#C32728}
    .fil3 {fill:#727177}
    .fil1 {fill:#C32728;fill-rule:nonzero}
    .fil4 {fill:#727177;fill-rule:nonzero}
   ]]>
  </style>
 </defs>
 <g id="Layer_x0020_1">
  <metadata id="CorelCorpID_0Corel-Layer"/>
  <polygon class="fil0" points="-0,3000 8000,3000 8000,0 -0,0 "/>
 </g>
 <g id="Layer_x0020_1_0">
  <metadata id="CorelCorpID_1Corel-Layer"/>
  <g id="_2040670462112">
   <path class="fil1" d="M893.1 944.5l-24.27 -132.88 -768.64 0c0,0 10.51,33.77 14.71,68.54l0 732.8c0,0 -9.48,61.72 -15.81,64.84l767.93 0c0,0 19.75,-118.59 24.48,-132.81 0,0 -68,22.14 -101.21,18.15l-396.2 0 0 -264.13 372.46 0c0,0 62.47,7.93 79.89,21.35l0 -158.93c0,0 -27.7,15.79 -78.33,21.38l-374.02 0 0 -258.63 389.87 0c0,0 73.53,3.38 109.14,20.32z"/>
   <path class="fil1" d="M1103.45 1038.87l250.71 0 7.12 69.61c0,0 4.73,-67.24 97.25,-66.47l230.93 0 0 143.11c0,0 -49.06,-15 -136.02,-15l-133.67 0c0,0 -44.26,-5.53 -45.87,35.63l0 362.18c0,0 4.77,95.68 18.22,108.3l-287.9 0c0,0 18.21,-30.81 15.05,-101.2l0 -436.51c0,0 -3.17,-90.19 -15.82,-99.65z"/>
   <path class="fil1" d="M2428.89 1543.77c0,16.83 -9.7,30.52 -21.65,30.52l-262 0c-11.95,0 -21.61,-13.69 -21.61,-30.52l0 -369.3c0,-16.82 9.66,-30.39 21.61,-30.39l262 0c11.95,0 21.65,13.57 21.65,30.39l0 369.3zm261.76 -32.76l0 -297.33c0,-181.19 -159.73,-174.04 -159.73,-174.04l-504.6 0c-177.88,0 -160.52,174.04 -160.52,174.04l0 291c0,173.12 147.86,171.55 147.86,171.55l525.12 0c170.08,0 151.87,-165.22 151.87,-165.22z"/>
   <path class="fil1" d="M2931.85 811.08l270.46 0 0 744.96c0,0 12.68,115.46 17.41,120.19l-287.87 0c0,0 15.02,-34.77 15.85,-113.09 0.77,-78.27 0,-667.46 0,-667.46 0,0 -4.79,-73.51 -15.85,-84.6z"/>
   <polygon class="fil1" points="3756.68,983.47 3508.34,983.47 3508.34,826.11 3756.68,826.11 "/>
   <path class="fil1" d="M3761.45 1040.45l-273.68 0c0,0 17.42,52.98 17.42,120.99l0 404.93c0,0 -8.69,107.57 -18.19,112.24l289.47 0c0,0 -16.62,-53.7 -16.62,-117.77 0,-64.08 1.6,-520.39 1.6,-520.39z"/>
   <path class="fil1" d="M4020.55 1040.45l258.33 0 6.35 59.01c0,0 14.78,-57.95 69.61,-57.95l336.36 0c0,0 158.16,-6.39 158.16,149.7l0 412.32c0,0 10.52,69.54 17.92,73.78l-288.94 0c0,0 14.78,-43.2 14.78,-70.68l0 -435.47c0,0 -5.26,-25.3 -25.34,-25.3l-251.97 0c0,0 -23.21,-1.04 -23.21,45.35l0 358.51c0,0 -1.04,110.73 17.98,127.59l-291.07 0c0,0 17.92,-24.28 17.92,-125.49l0 -429.14c0,0 -5.27,-76.97 -16.88,-82.23z"/>
   <path class="fil1" d="M5344.64 1172.54c0,-30.87 19.78,-27 19.78,-27l264.15 0c21.38,0 22.15,22.2 22.15,22.2l0 148.67 -307.57 0c0,0 1.49,-113.04 1.49,-143.87zm483.28 403.6l-442.95 0c-37.94,0 -42.17,-32.73 -42.17,-32.73l0 -125.47 567.31 0 0 -216.19c0,-173.98 -158.18,-161.29 -158.18,-161.29l-505.02 0c-149.76,0 -158.16,130.71 -158.16,130.71l0 373.3c0,132.87 146.54,132.87 146.54,132.87l653.74 0 22.15 -110.73c-6.26,5.27 -83.26,9.53 -83.26,9.53z"/>
   <path class="fil1" d="M6059.69 745.65c20.74,0 40.99,5.06 60.77,15.22 19.74,10.12 35.17,24.66 46.18,43.5 11.02,18.9 16.55,38.6 16.55,59.04 0,20.28 -5.43,39.83 -16.33,58.51 -10.84,18.74 -26.05,33.27 -45.68,43.6 -19.61,10.38 -40.13,15.55 -61.49,15.55 -21.41,0 -41.93,-5.17 -61.55,-15.55 -19.62,-10.33 -34.89,-24.86 -45.78,-43.6 -10.91,-18.68 -16.39,-38.23 -16.39,-58.51 0,-20.44 5.53,-40.14 16.61,-59.04 11.12,-18.84 26.55,-33.38 46.29,-43.5 19.79,-10.16 40.03,-15.22 60.82,-15.22zm0 19.49c-17.38,0 -34.32,4.26 -50.76,12.72 -16.44,8.46 -29.29,20.6 -38.58,36.36 -9.28,15.76 -13.91,32.16 -13.91,49.19 0,16.99 4.58,33.22 13.69,48.77 9.11,15.55 21.86,27.68 38.25,36.36 16.37,8.68 33.48,13.05 51.31,13.05 17.78,0 34.89,-4.37 51.27,-13.05 16.38,-8.68 29.13,-20.81 38.18,-36.36 9.06,-15.55 13.58,-31.78 13.58,-48.77 0,-17.03 -4.64,-33.43 -13.86,-49.19 -9.22,-15.76 -22.08,-27.9 -38.57,-36.36 -16.5,-8.46 -33.38,-12.72 -50.6,-12.72zm-54.28 163.23l0 -126.5 45.73 0c15.65,0 26.95,1.17 33.93,3.51 7.05,2.35 12.58,6.39 16.77,12.25 4.14,5.8 6.21,11.98 6.21,18.53 0,9.2 -3.46,17.3 -10.45,24.11 -6.94,6.87 -16.16,10.7 -27.67,11.55 4.68,1.87 8.49,4.1 11.29,6.71 5.36,4.95 11.9,13.31 19.67,25.08l16.21 24.76 -26.04 0 -11.86 -19.92c-9.27,-15.7 -16.82,-25.55 -22.52,-29.49 -3.92,-2.88 -9.62,-4.32 -17.17,-4.26l-12.64 0 0 53.67 -21.46 0zm21.46 -71.24l26.06 0c12.47,0 20.96,-1.75 25.49,-5.27 4.53,-3.51 6.82,-8.2 6.82,-13.95 0,-3.73 -1.12,-7.08 -3.3,-10.01 -2.18,-2.98 -5.19,-5.16 -9.06,-6.6 -3.91,-1.44 -11.06,-2.18 -21.58,-2.18l-24.43 0 0 38.01z"/>
  </g>
  <rect class="fil2" x="6383.63" y="1039.64" width="885.83" height="638.31"/>
  <rect class="fil3" x="7345.29" y="1039.64" width="555.63" height="638.31"/>
  <path class="fil4" d="M143.14 2062.68l91.15 0 0 26.56 -119.22 0 0 -211.29 28.07 0 0 184.73zm122.25 -184.73l28.07 0 0 211.29 -28.07 0 0 -211.29zm198.01 26.56l-93.57 0 0 68.52 89.65 0 0 26.56 -89.65 0 0 89.65 -28.07 0 0 -211.29 121.64 0 0 26.56zm65.2 158.17l98.1 0 0 26.56 -126.17 0 0 -211.29 124.66 0 0 26.56 -96.59 0 0 64.9 89.04 0 0 26.26 -89.04 0 0 67.01zm238.45 0l91.15 0 0 26.56 -119.22 0 0 -211.29 28.07 0 0 184.73zm267.43 26.56l-17.26 -47.39 -94.98 0 -17.25 47.39 -29.89 0 78.78 -211.29 31.7 0 78.78 211.29 -29.88 0zm-102.68 -73.65l75.86 0 -37.93 -104.28 -37.93 104.28zm223.11 77.57c-19.72,0 -36.57,-4.62 -50.55,-13.88 -13.99,-9.26 -23.8,-21.93 -29.43,-38.03l24.14 -13.89c8.25,25.56 27.07,38.34 56.45,38.34 14.49,0 25.55,-2.97 33.2,-8.91 7.65,-5.93 11.47,-13.83 11.47,-23.69 0,-10.06 -3.82,-17.61 -11.47,-22.64 -7.65,-5.03 -20.42,-10.36 -38.33,-16 -8.76,-3.02 -15.5,-5.33 -20.18,-6.94 -4.68,-1.61 -10.46,-4.18 -17.4,-7.7 -6.95,-3.52 -12.13,-7.14 -15.55,-10.86 -3.42,-3.73 -6.49,-8.61 -9.2,-14.64 -2.72,-6.04 -4.08,-12.88 -4.08,-20.53 0,-18.31 6.44,-32.85 19.32,-43.61 12.88,-10.77 28.57,-16.15 47.09,-16.15 16.7,0 31.24,4.22 43.61,12.68 12.38,8.45 21.68,19.61 27.92,33.5l-23.54 13.58c-9.06,-21.73 -25.05,-32.6 -47.99,-32.6 -11.47,0 -20.73,2.82 -27.77,8.46 -7.05,5.63 -10.57,13.28 -10.57,22.94 0,9.2 3.32,16.24 9.96,21.07 6.64,4.83 18.11,9.86 34.41,15.1 5.74,2.01 9.81,3.47 12.28,4.37 2.51,0.86 6.29,2.22 11.42,4.03 5.18,1.81 8.95,3.32 11.37,4.52 2.41,1.21 5.68,2.92 9.76,5.14 4.12,2.26 7.19,4.37 9.2,6.38 2.01,2.02 4.38,4.48 7.1,7.4 2.71,2.92 4.67,5.89 5.88,8.9 1.21,3.02 2.27,6.49 3.17,10.47 0.91,3.92 1.36,8.1 1.36,12.52 0,18.52 -6.74,33.26 -20.22,44.22 -13.49,10.97 -31.09,16.45 -52.83,16.45zm236.95 -215.21l0 26.56 -62.48 0 0 184.73 -27.77 0 0 -184.73 -62.18 0 0 -26.56 152.43 0zm30.79 0l28.07 0 0 211.29 -28.07 0 0 -211.29zm207.67 0l28.07 0 0 211.29 -22.64 0 -108.66 -157.86 0 157.86 -28.07 0 0 -211.29 21.73 0 109.57 158.67 0 -158.67zm280.11 106.55l0 12.68c0,27.57 -9.46,50.46 -28.37,68.67 -18.92,18.21 -43.97,27.31 -75.16,27.31 -32.2,0 -58.81,-10.61 -79.84,-31.84 -21.03,-21.23 -31.54,-47.14 -31.54,-77.72 0,-30.59 10.51,-56.5 31.54,-77.73 21.03,-21.23 47.44,-31.84 79.24,-31.84 19.51,0 37.42,4.68 53.72,14.03 16.3,9.36 28.88,21.69 37.73,36.98l-24.14 14.19c-6.04,-11.47 -15.15,-20.68 -27.32,-27.62 -12.18,-6.95 -25.61,-10.42 -40.3,-10.42 -24.14,0 -43.96,7.9 -59.46,23.7 -15.49,15.79 -23.24,35.36 -23.24,58.71 0,23.34 7.8,42.86 23.39,58.55 15.6,15.7 35.77,23.55 60.52,23.55 21.13,0 38.23,-5.19 51.31,-15.55 13.08,-10.36 21.03,-23.79 23.85,-40.29l-77.57 0 0 -25.36 105.64 0zm156.61 104.74l-59.11 -211.29 29.53 0 48.34 173.86 51.31 -173.86 28.38 0 51.31 173.86 48.29 -173.86 27.97 0 -59.06 211.29 -32.59 0 -50.26 -169.23 -50.26 169.23 -33.85 0zm260.84 -211.29l28.07 0 0 211.29 -28.07 0 0 -211.29zm207.67 0l28.07 0 0 211.29 -22.64 0 -108.66 -157.86 0 157.86 -28.07 0 0 -211.29 21.73 0 109.57 158.67 0 -158.67zm158.77 0c28.78,0 52.67,10.21 71.69,30.64 19.01,20.42 28.52,45.43 28.52,75.01 0,29.58 -9.51,54.58 -28.52,75 -19.02,20.43 -42.91,30.64 -71.69,30.64l-82.4 0 0 -211.29 82.4 0zm0 184.73c21.53,0 39.14,-7.55 52.82,-22.64 13.69,-15.09 20.53,-33.91 20.53,-56.44 0,-22.54 -6.84,-41.36 -20.53,-56.45 -13.68,-15.09 -31.29,-22.64 -52.82,-22.64l-54.33 0 0 158.17 54.33 0zm313.16 -1.51c-21.23,21.33 -47.14,31.99 -77.72,31.99 -30.59,0 -56.45,-10.66 -77.58,-31.99 -21.13,-21.33 -31.69,-47.19 -31.69,-77.57 0,-30.59 10.56,-56.5 31.69,-77.73 21.13,-21.23 46.99,-31.84 77.58,-31.84 30.58,0 56.49,10.61 77.72,31.84 21.23,21.23 31.84,47.14 31.84,77.73 0,30.38 -10.61,56.24 -31.84,77.57zm-135.83 -19.17c15.6,15.8 34.96,23.7 58.11,23.7 23.14,0 42.51,-7.9 58.1,-23.7 15.6,-15.79 23.39,-35.26 23.39,-58.4 0,-23.35 -7.79,-42.92 -23.39,-58.71 -15.59,-15.8 -34.96,-23.7 -58.1,-23.7 -23.15,0 -42.51,7.9 -58.11,23.7 -15.59,15.79 -23.39,35.36 -23.39,58.71 0,23.14 7.8,42.61 23.39,58.4zm239.16 47.24l-59.11 -211.29 29.53 0 48.34 173.86 51.31 -173.86 28.38 0 51.31 173.86 48.29 -173.86 27.97 0 -59.06 211.29 -32.59 0 -50.26 -169.23 -50.26 169.23 -33.85 0zm693.98 -211.29c28.78,0 52.67,10.21 71.69,30.64 19.01,20.42 28.52,45.43 28.52,75.01 0,29.58 -9.51,54.58 -28.52,75 -19.02,20.43 -42.91,30.64 -71.69,30.64l-82.4 0 0 -211.29 82.4 0zm0 184.73c21.53,0 39.14,-7.55 52.82,-22.64 13.69,-15.09 20.53,-33.91 20.53,-56.44 0,-22.54 -6.84,-41.36 -20.53,-56.45 -13.68,-15.09 -31.29,-22.64 -52.82,-22.64l-54.33 0 0 158.17 54.33 0zm313.16 -1.51c-21.23,21.33 -47.14,31.99 -77.72,31.99 -30.59,0 -56.45,-10.66 -77.58,-31.99 -21.13,-21.33 -31.69,-47.19 -31.69,-77.57 0,-30.59 10.56,-56.5 31.69,-77.73 21.13,-21.23 46.99,-31.84 77.58,-31.84 30.58,0 56.49,10.61 77.72,31.84 21.23,21.23 31.84,47.14 31.84,77.73 0,30.38 -10.61,56.24 -31.84,77.57zm-135.83 -19.17c15.6,15.8 34.96,23.7 58.11,23.7 23.14,0 42.51,-7.9 58.1,-23.7 15.6,-15.79 23.39,-35.26 23.39,-58.4 0,-23.35 -7.79,-42.92 -23.39,-58.71 -15.59,-15.8 -34.96,-23.7 -58.1,-23.7 -23.15,0 -42.51,7.9 -58.11,23.7 -15.59,15.79 -23.39,35.36 -23.39,58.71 0,23.14 7.8,42.61 23.39,58.4zm380.32 19.17c-21.23,21.33 -47.14,31.99 -77.72,31.99 -30.59,0 -56.45,-10.66 -77.58,-31.99 -21.13,-21.33 -31.69,-47.19 -31.69,-77.57 0,-30.59 10.56,-56.5 31.69,-77.73 21.13,-21.23 46.99,-31.84 77.58,-31.84 30.58,0 56.49,10.61 77.72,31.84 21.23,21.23 31.84,47.14 31.84,77.73 0,30.38 -10.61,56.24 -31.84,77.57zm-135.83 -19.17c15.6,15.8 34.96,23.7 58.11,23.7 23.14,0 42.51,-7.9 58.1,-23.7 15.6,-15.79 23.39,-35.26 23.39,-58.4 0,-23.35 -7.79,-42.92 -23.39,-58.71 -15.59,-15.8 -34.96,-23.7 -58.1,-23.7 -23.15,0 -42.51,7.9 -58.11,23.7 -15.59,15.79 -23.39,35.36 -23.39,58.71 0,23.14 7.8,42.61 23.39,58.4zm329.76 47.24l-47.34 -80.89 -49.85 0 0 80.89 -28.07 0 0 -211.29 84.51 0c18.11,0 33.61,6.39 46.49,19.17 12.88,12.78 19.31,28.22 19.31,46.33 0,13.68 -4.07,26.16 -12.22,37.43 -8.15,11.27 -18.66,19.22 -31.54,23.84l49.8 84.52 -31.09 0zm-97.19 -185.03l0 78.78 56.44 0c10.47,0 19.37,-3.87 26.72,-11.62 7.34,-7.75 11.01,-17.05 11.01,-27.92 0,-10.86 -3.67,-20.12 -11.01,-27.77 -7.35,-7.64 -16.25,-11.47 -26.72,-11.47l-56.44 0zm303.04 188.95c-19.72,0 -36.57,-4.62 -50.55,-13.88 -13.99,-9.26 -23.8,-21.93 -29.43,-38.03l24.14 -13.89c8.25,25.56 27.07,38.34 56.45,38.34 14.49,0 25.55,-2.97 33.2,-8.91 7.65,-5.93 11.47,-13.83 11.47,-23.69 0,-10.06 -3.82,-17.61 -11.47,-22.64 -7.65,-5.03 -20.42,-10.36 -38.33,-16 -8.76,-3.02 -15.5,-5.33 -20.18,-6.94 -4.68,-1.61 -10.46,-4.18 -17.4,-7.7 -6.95,-3.52 -12.13,-7.14 -15.55,-10.86 -3.42,-3.73 -6.49,-8.61 -9.2,-14.64 -2.72,-6.04 -4.08,-12.88 -4.08,-20.53 0,-18.31 6.44,-32.85 19.32,-43.61 12.88,-10.77 28.57,-16.15 47.09,-16.15 16.7,0 31.24,4.22 43.61,12.68 12.38,8.45 21.68,19.61 27.92,33.5l-23.54 13.58c-9.06,-21.73 -25.05,-32.6 -47.99,-32.6 -11.47,0 -20.73,2.82 -27.77,8.46 -7.05,5.63 -10.57,13.28 -10.57,22.94 0,9.2 3.32,16.24 9.96,21.07 6.64,4.83 18.11,9.86 34.41,15.1 5.74,2.01 9.81,3.47 12.28,4.37 2.51,0.86 6.29,2.22 11.42,4.03 5.18,1.81 8.95,3.32 11.37,4.52 2.41,1.21 5.68,2.92 9.76,5.14 4.12,2.26 7.19,4.37 9.2,6.38 2.01,2.02 4.38,4.48 7.1,7.4 2.71,2.92 4.67,5.89 5.88,8.9 1.21,3.02 2.27,6.49 3.17,10.47 0.91,3.92 1.36,8.1 1.36,12.52 0,18.52 -6.74,33.26 -20.22,44.22 -13.49,10.97 -31.09,16.45 -52.83,16.45zm257.17 -215.21l-74.86 125.87 0 85.42 -28.07 0 0 -85.72 -74.56 -125.57 31.4 0 57.5 99.16 57.2 -99.16 31.39 0zm84.21 215.21c-19.72,0 -36.57,-4.62 -50.55,-13.88 -13.99,-9.26 -23.8,-21.93 -29.43,-38.03l24.14 -13.89c8.25,25.56 27.07,38.34 56.45,38.34 14.49,0 25.55,-2.97 33.2,-8.91 7.65,-5.93 11.47,-13.83 11.47,-23.69 0,-10.06 -3.82,-17.61 -11.47,-22.64 -7.65,-5.03 -20.42,-10.36 -38.33,-16 -8.76,-3.02 -15.5,-5.33 -20.18,-6.94 -4.68,-1.61 -10.46,-4.18 -17.4,-7.7 -6.95,-3.52 -12.13,-7.14 -15.55,-10.86 -3.42,-3.73 -6.49,-8.61 -9.2,-14.64 -2.72,-6.04 -4.08,-12.88 -4.08,-20.53 0,-18.31 6.44,-32.85 19.32,-43.61 12.88,-10.77 28.57,-16.15 47.09,-16.15 16.7,0 31.24,4.22 43.61,12.68 12.38,8.45 21.68,19.61 27.92,33.5l-23.54 13.58c-9.06,-21.73 -25.05,-32.6 -47.99,-32.6 -11.47,0 -20.73,2.82 -27.77,8.46 -7.05,5.63 -10.57,13.28 -10.57,22.94 0,9.2 3.32,16.24 9.96,21.07 6.64,4.83 18.11,9.86 34.41,15.1 5.74,2.01 9.81,3.47 12.28,4.37 2.51,0.86 6.29,2.22 11.42,4.03 5.18,1.81 8.95,3.32 11.37,4.52 2.41,1.21 5.68,2.92 9.76,5.14 4.12,2.26 7.19,4.37 9.2,6.38 2.01,2.02 4.38,4.48 7.1,7.4 2.71,2.92 4.67,5.89 5.88,8.9 1.21,3.02 2.27,6.49 3.17,10.47 0.91,3.92 1.36,8.1 1.36,12.52 0,18.52 -6.74,33.26 -20.22,44.22 -13.49,10.97 -31.09,16.45 -52.83,16.45zm236.95 -215.21l0 26.56 -62.48 0 0 184.73 -27.77 0 0 -184.73 -62.18 0 0 -26.56 152.43 0zm58.86 184.73l98.1 0 0 26.56 -126.17 0 0 -211.29 124.66 0 0 26.56 -96.59 0 0 64.9 89.04 0 0 26.26 -89.04 0 0 67.01zm332.62 -184.73l0 211.29 -27.77 0 0 -165.11 -69.12 115 -3.42 -0.1 -69.32 -115.05 0 165.26 -28.07 0 0 -211.29 31.69 0 67.61 112.19 67.06 -112.19 31.34 0zm113.19 215.21c-19.72,0 -36.57,-4.62 -50.55,-13.88 -13.99,-9.26 -23.8,-21.93 -29.43,-38.03l24.14 -13.89c8.25,25.56 27.07,38.34 56.45,38.34 14.49,0 25.55,-2.97 33.2,-8.91 7.65,-5.93 11.47,-13.83 11.47,-23.69 0,-10.06 -3.82,-17.61 -11.47,-22.64 -7.65,-5.03 -20.42,-10.36 -38.33,-16 -8.76,-3.02 -15.5,-5.33 -20.18,-6.94 -4.68,-1.61 -10.46,-4.18 -17.4,-7.7 -6.95,-3.52 -12.13,-7.14 -15.55,-10.86 -3.42,-3.73 -6.49,-8.61 -9.2,-14.64 -2.72,-6.04 -4.08,-12.88 -4.08,-20.53 0,-18.31 6.44,-32.85 19.32,-43.61 12.88,-10.77 28.57,-16.15 47.09,-16.15 16.7,0 31.24,4.22 43.61,12.68 12.38,8.45 21.68,19.61 27.92,33.5l-23.54 13.58c-9.06,-21.73 -25.05,-32.6 -47.99,-32.6 -11.47,0 -20.73,2.82 -27.77,8.46 -7.05,5.63 -10.57,13.28 -10.57,22.94 0,9.2 3.32,16.24 9.96,21.07 6.64,4.83 18.11,9.86 34.41,15.1 5.74,2.01 9.81,3.47 12.28,4.37 2.51,0.86 6.29,2.22 11.42,4.03 5.18,1.81 8.95,3.32 11.37,4.52 2.41,1.21 5.68,2.92 9.76,5.14 4.12,2.26 7.19,4.37 9.2,6.38 2.01,2.02 4.38,4.48 7.1,7.4 2.71,2.92 4.67,5.89 5.88,8.9 1.21,3.02 2.27,6.49 3.17,10.47 0.91,3.92 1.36,8.1 1.36,12.52 0,18.52 -6.74,33.26 -20.22,44.22 -13.49,10.97 -31.09,16.45 -52.83,16.45zm-2229.38 -12.67l-23.55 13.58 -21.43 -22.94c-15.69,14.69 -35.82,22.03 -60.37,22.03 -21.13,0 -38.23,-5.48 -51.31,-16.45 -13.08,-10.96 -19.62,-25.8 -19.62,-44.52 0,-12.88 3.27,-24.7 9.81,-35.46 6.54,-10.77 16.15,-19.27 28.83,-25.51 -9.06,-11.47 -13.59,-24.25 -13.59,-38.33 0,-17.51 6.09,-31.7 18.27,-42.56 12.17,-10.87 26.81,-16.3 43.91,-16.3 14.09,0 26.87,3.82 38.34,11.47 11.47,7.64 19.72,18.21 24.75,31.69l-23.55 13.58c-3.01,-9.25 -7.99,-16.5 -14.94,-21.73 -6.94,-5.23 -14.94,-7.85 -23.99,-7.85 -9.66,0 -17.86,2.92 -24.6,8.76 -6.74,5.83 -10.11,13.38 -10.11,22.64 0,6.64 1.55,12.62 4.67,17.95 3.12,5.34 7.8,11.32 14.04,17.96l57.45 61.63c5.13,-10.46 8.8,-23.29 11.07,-38.38l24.14 13.88c-2.76,16.75 -8.1,31.74 -16.04,45.02l27.82 29.84zm-104.74 -13.89c16.8,0 30.73,-4.88 41.85,-14.69l-57.25 -61.37c-9.66,4.02 -16.75,9.66 -21.28,16.9 -4.52,7.25 -6.79,14.89 -6.79,22.94 0,11.27 3.83,20.12 11.47,26.56 7.65,6.44 18.31,9.66 32,9.66z"/>
 </g>
</svg>
